<svg width="242" height="61" viewBox="0 0 242 61" fill="none" xmlns="http://www.w3.org/2000/svg">
<path fill-rule="evenodd" clip-rule="evenodd" d="M128.645 10.8115C125.876 10.8115 123.523 11.2312 121.564 12.0398L121.559 12.0418L121.554 12.0437C119.594 12.8282 118.138 13.9335 117.132 15.3376C116.156 16.7101 115.657 18.3238 115.657 20.2183C115.657 21.6886 116.048 22.785 116.752 23.5979C117.576 24.4904 118.519 25.1522 119.586 25.5944C120.744 26.047 122.222 26.5074 124.032 26.9732C125.428 27.3159 126.51 27.6472 127.226 27.9748C128.024 28.3278 128.778 28.9611 128.778 29.9952C128.778 31.0161 128.089 31.6776 127.272 32.052C126.457 32.4257 125.389 32.5731 124.153 32.5731C121.063 32.5731 118.093 31.831 115.252 30.3618L112.551 35.5289C113.682 36.1127 115.059 36.6145 116.697 37.0245C118.717 37.5039 120.886 37.7462 123.207 37.7462C125.949 37.7462 128.291 37.3398 130.253 36.5554C132.219 35.7432 133.679 34.6345 134.685 33.2529C135.686 31.8783 136.195 30.2795 136.195 28.4183C136.195 26.9718 135.803 25.9033 135.1 25.1171C134.308 24.2309 133.371 23.5838 132.281 23.1662L132.278 23.165L132.274 23.1637C131.122 22.7126 129.672 22.2781 127.914 21.8643C126.435 21.5206 125.297 21.1891 124.554 20.8618L124.547 20.8589L124.54 20.8558C123.724 20.4815 123.034 19.82 123.034 18.799C123.034 17.7559 123.795 17.0706 124.617 16.6445C125.522 16.175 126.697 15.9846 128.054 15.9846C129.5 15.9846 130.909 16.1655 132.277 16.5286C133.32 16.7999 134.299 17.1737 135.212 17.6514L137.697 12.6204C136.678 12.1198 135.499 11.7172 134.151 11.4197L134.143 11.4179L134.135 11.416C132.457 11.0151 130.628 10.8115 128.645 10.8115ZM120.836 10.2602C123.078 9.33551 125.689 8.88846 128.645 8.88846C130.756 8.88846 132.734 9.10479 134.574 9.54361C136.435 9.95506 138.068 10.5649 139.458 11.3879L140.225 11.842L136.007 20.3809L135.105 19.8082C134.117 19.1816 133.015 18.7074 131.792 18.3892L131.789 18.3886L131.787 18.388C130.582 18.0683 129.339 17.9077 128.054 17.9077C126.837 17.9077 126.015 18.0852 125.502 18.3517C125.217 18.4992 125.072 18.6261 125.005 18.7082C124.95 18.7754 124.956 18.7985 124.956 18.799C124.956 18.8278 124.959 18.8399 124.982 18.8686C125.017 18.9126 125.112 19.0018 125.335 19.1047C125.906 19.3549 126.894 19.6531 128.35 19.9912L128.351 19.9916L128.353 19.9919C130.165 20.4186 131.709 20.8773 132.972 21.3718C134.35 21.9004 135.54 22.7246 136.533 23.8348C137.616 25.046 138.117 26.6057 138.117 28.4183C138.117 30.657 137.496 32.6589 136.238 34.3856C134.987 36.1042 133.216 37.4128 130.982 38.335L130.977 38.337L130.972 38.3389C128.732 39.2353 126.137 39.6692 123.207 39.6692C120.75 39.6692 118.429 39.4125 116.247 38.8942L116.241 38.8929L116.236 38.8915C114.07 38.3497 112.237 37.6347 110.764 36.7276L110.001 36.2576L114.466 27.7165L115.333 28.2156C118.164 29.8452 121.1 30.65 124.153 30.65C125.281 30.65 126.025 30.5083 126.471 30.3038C126.698 30.1996 126.795 30.1091 126.831 30.0647C126.852 30.0374 126.856 30.0251 126.856 29.9992C126.854 29.9955 126.85 29.9898 126.843 29.9824C126.804 29.9364 126.695 29.8418 126.445 29.732L126.439 29.7291L126.432 29.726C125.888 29.4768 124.951 29.1787 123.569 28.8396L123.564 28.8383L123.559 28.837C121.698 28.3582 120.134 27.8741 118.877 27.382L118.869 27.3787L118.86 27.3752C117.518 26.8204 116.339 25.9884 115.329 24.8908L115.32 24.8812L115.311 24.8713C114.234 23.6351 113.735 22.0536 113.735 20.2183C113.735 17.9612 114.338 15.9486 115.568 14.2203L115.569 14.219L115.57 14.2178C116.822 12.4695 118.595 11.1577 120.836 10.2602ZM158.246 10.8115C155.049 10.8115 152.211 11.4777 149.711 12.7896C147.239 14.1008 145.308 15.9352 143.903 18.3033C142.528 20.6364 141.83 23.3155 141.83 26.3683C141.83 28.6282 142.356 30.5928 143.383 32.2917C144.437 33.9918 145.924 35.3306 147.873 36.307C149.847 37.2565 152.167 37.7462 154.857 37.7462C158.056 37.7462 160.88 37.0795 163.352 35.7687L163.354 35.7678L163.356 35.7668C165.856 34.4541 167.784 32.6325 169.161 30.2954L169.161 30.2941L169.162 30.2927C170.563 27.9318 171.273 25.2396 171.273 22.1894C171.273 19.9317 170.736 17.9687 169.684 16.27L169.681 16.2658L169.679 16.2616C168.654 14.5683 167.172 13.2444 165.198 12.2933L165.191 12.2902L165.185 12.2869C163.24 11.3143 160.937 10.8115 158.246 10.8115ZM148.815 11.088C151.621 9.61482 154.772 8.88846 158.246 8.88846C161.174 8.88846 163.781 9.43597 166.038 10.5638C168.315 11.6617 170.087 13.2263 171.32 15.2609C172.578 17.2933 173.196 19.6129 173.196 22.1894C173.196 25.5517 172.409 28.5887 170.815 31.2737C169.251 33.9287 167.055 35.9959 164.251 37.4686C161.469 38.9432 158.33 39.6692 154.857 39.6692C151.929 39.6692 149.313 39.135 147.033 38.0365L147.026 38.0334L147.02 38.0302C144.771 36.9051 143.003 35.329 141.746 33.3007L141.744 33.2965L141.741 33.2923C140.511 31.2602 139.908 28.9422 139.908 26.3683C139.908 23.0089 140.68 19.9853 142.248 17.3252L142.248 17.3239L142.249 17.3226C143.838 14.6454 146.031 12.5643 148.812 11.0898L148.814 11.0889L148.815 11.088ZM19.131 9.51923H29.5598L36.5567 39.0385H25.2843L24.378 34.2288H15.2106L12.4523 39.0385H0.332214L19.131 9.51923ZM20.1855 11.4423L3.83603 37.1154H11.3391L14.0974 32.3058H25.9716L26.8779 37.1154H34.1254L28.0402 11.4423H20.1855ZM39.0108 9.51923H50.134L51.6508 22.9744L58.6616 9.51923H68.6659L70.0104 23.1387L77.1025 9.51923H88.4102L73.0676 39.0385H61.6524L60.3256 26.7921L53.9566 39.0385H42.5514L39.0108 9.51923ZM41.1774 11.4423L44.2567 37.1154H52.7899L61.552 20.2675L63.3775 37.1154H71.9007L85.2442 11.4423H78.2684L68.7321 29.7556L66.9242 11.4423H59.8272L50.446 29.4467L48.4165 11.4423H41.1774ZM89.2864 9.51923H113.67L111.863 18.4596H98.5891L98.3337 19.7692H110.003L108.279 28.3942H96.5791L96.2459 30.0981H110.084L108.277 39.0385H83.3854L89.2864 9.51923ZM90.8622 11.4423L85.73 37.1154H106.705L107.734 32.0212H93.9113L94.9966 26.4712H106.703L107.658 21.6923H96.0003L97.0058 16.5365H110.29L111.32 11.4423H90.8622ZM178.644 9.51923H187.643L193.253 23.2546L204.066 9.51923H213.621L207.805 39.0385H197.377L199.266 29.3134L193.696 36.5548H188.492L185.205 28.8829L183.175 39.0385H172.743L178.644 9.51923ZM180.22 11.4423L175.088 37.1154H181.599L184.534 22.4344L189.759 34.6317H192.75L200.224 24.9146L201.929 25.6844L199.709 37.1154H206.225L211.283 11.4423H204.999L192.721 27.0377L186.352 11.4423H180.22ZM217.421 9.51923H241.805L239.998 18.4596H226.724L226.469 19.7692H238.138L236.414 28.3942H224.714L224.381 30.0981H238.219L236.412 39.0385H211.52L217.421 9.51923ZM218.997 11.4423L213.865 37.1154H234.84L235.87 32.0212H222.046L223.132 26.4712H234.838L235.793 21.6923H224.135L225.141 16.5365H238.426L239.455 11.4423H218.997ZM153.05 17.7318C154.33 16.848 155.812 16.4183 157.458 16.4183C159.33 16.4183 160.915 16.9654 162.083 18.1632C163.265 19.3483 163.817 20.9099 163.817 22.7413C163.817 24.3905 163.504 25.9321 162.866 27.3534C162.221 28.791 161.271 29.9558 160.018 30.8227C158.761 31.7107 157.29 32.1394 155.645 32.1394C153.77 32.1394 152.177 31.5906 150.986 30.3991L150.981 30.3945L150.977 30.3898C149.822 29.2027 149.286 27.6426 149.286 25.8163C149.286 24.1672 149.599 22.6256 150.237 21.2042C150.88 19.7709 151.814 18.6064 153.041 17.7381L153.046 17.7349L153.05 17.7318ZM154.147 19.3112C153.222 19.9668 152.503 20.8514 151.991 21.9919C151.473 23.1462 151.208 24.4168 151.208 25.8163C151.208 27.246 151.616 28.2865 152.35 29.044C153.103 29.7945 154.162 30.2163 155.645 30.2163C156.942 30.2163 158.016 29.8839 158.913 29.2496L158.917 29.2465L158.922 29.2434C159.873 28.5863 160.603 27.7022 161.113 26.5658C161.631 25.4114 161.895 24.1409 161.895 22.7413C161.895 21.3162 161.478 20.2776 160.719 19.5184L160.714 19.5137L160.71 19.509C159.986 18.7652 158.946 18.3413 157.458 18.3413C156.164 18.3413 155.073 18.6727 154.147 19.3112ZM22.995 16.7804L25.0353 27.5269H16.8143L22.995 16.7804ZM20.138 25.6038H22.7137L22.0745 22.2369L20.138 25.6038Z" fill="white"/>
<path d="M95.9774 47.1154V60.5769H93.4787V54.8077H86.5205V60.5769H84.0217V47.1154H86.5205V52.6731H93.4787V47.1154H95.9774Z" fill="white"/>
<path d="M106.445 60.7692C105.074 60.7692 103.837 60.4744 102.735 59.8846C101.633 59.2821 100.768 58.4551 100.14 57.4038C99.5123 56.3397 99.1984 55.1538 99.1984 53.8462C99.1984 52.5385 99.5123 51.359 100.14 50.3077C100.768 49.2436 101.633 48.4167 102.735 47.8269C103.837 47.2243 105.074 46.9231 106.445 46.9231C107.816 46.9231 109.053 47.2243 110.155 47.8269C111.257 48.4167 112.122 49.2372 112.749 50.2885C113.377 51.3397 113.691 52.5256 113.691 53.8462C113.691 55.1667 113.377 56.3526 112.749 57.4038C112.122 58.4551 111.257 59.2821 110.155 59.8846C109.053 60.4744 107.816 60.7692 106.445 60.7692ZM106.445 58.5769C107.342 58.5769 108.149 58.3782 108.867 57.9808C109.584 57.5705 110.148 57.0064 110.558 56.2885C110.968 55.5577 111.173 54.7436 111.173 53.8462C111.173 52.9487 110.968 52.141 110.558 51.4231C110.148 50.6923 109.584 50.1282 108.867 49.7308C108.149 49.3205 107.342 49.1154 106.445 49.1154C105.548 49.1154 104.741 49.3205 104.023 49.7308C103.305 50.1282 102.742 50.6923 102.331 51.4231C101.921 52.141 101.716 52.9487 101.716 53.8462C101.716 54.7436 101.921 55.5577 102.331 56.2885C102.742 57.0064 103.305 57.5705 104.023 57.9808C104.741 58.3782 105.548 58.5769 106.445 58.5769Z" fill="white"/>
<path d="M119.458 49.2308H114.999V47.1154H126.416V49.2308H121.957V60.5769H119.458V49.2308Z" fill="white"/>
<path d="M138.96 58.4808V60.5769H128.868V47.1154H138.691V49.2115H131.367V52.7115H137.864V54.7692H131.367V58.4808H138.96Z" fill="white"/>
<path d="M142.322 47.1154H144.821V58.4615H151.856V60.5769H142.322V47.1154Z" fill="white"/>
<path d="M158.482 60.7692C157.444 60.7692 156.438 60.6218 155.465 60.3269C154.503 60.0321 153.741 59.641 153.177 59.1539L154.042 57.2115C154.593 57.6474 155.266 58.0064 156.06 58.2885C156.868 58.5577 157.675 58.6923 158.482 58.6923C159.482 58.6923 160.225 58.5321 160.712 58.2115C161.212 57.891 161.462 57.468 161.462 56.9423C161.462 56.5577 161.321 56.2436 161.039 56C160.77 55.7436 160.424 55.5449 160.001 55.4038C159.578 55.2628 159.001 55.1026 158.271 54.9231C157.246 54.6795 156.413 54.4359 155.772 54.1923C155.144 53.9487 154.6 53.5705 154.138 53.0577C153.69 52.532 153.465 51.8269 153.465 50.9423C153.465 50.1987 153.664 49.5256 154.061 48.9231C154.471 48.3077 155.08 47.8205 155.887 47.4615C156.707 47.1026 157.707 46.9231 158.886 46.9231C159.706 46.9231 160.513 47.0256 161.308 47.2308C162.102 47.4359 162.788 47.7308 163.365 48.1154L162.576 50.0577C161.987 49.7115 161.372 49.4487 160.731 49.2692C160.09 49.0897 159.469 49 158.867 49C157.88 49 157.143 49.1667 156.656 49.5C156.182 49.8333 155.945 50.2756 155.945 50.8269C155.945 51.2115 156.08 51.5256 156.349 51.7692C156.631 52.0128 156.983 52.2051 157.406 52.3461C157.829 52.4872 158.405 52.6474 159.136 52.8269C160.135 53.0577 160.955 53.3013 161.596 53.5577C162.237 53.8013 162.781 54.1795 163.23 54.6923C163.691 55.2051 163.922 55.8974 163.922 56.7692C163.922 57.5128 163.717 58.1859 163.307 58.7885C162.91 59.391 162.301 59.8718 161.481 60.2308C160.661 60.5898 159.661 60.7692 158.482 60.7692Z" fill="white"/>
<path d="M95.9774 47.1154V60.5769H93.4787V54.8077H86.5205V60.5769H84.0217V47.1154H86.5205V52.6731H93.4787V47.1154H95.9774Z" stroke="white"/>
<path d="M106.445 60.7692C105.074 60.7692 103.837 60.4744 102.735 59.8846C101.633 59.2821 100.768 58.4551 100.14 57.4038C99.5123 56.3397 99.1984 55.1538 99.1984 53.8462C99.1984 52.5385 99.5123 51.359 100.14 50.3077C100.768 49.2436 101.633 48.4167 102.735 47.8269C103.837 47.2243 105.074 46.9231 106.445 46.9231C107.816 46.9231 109.053 47.2243 110.155 47.8269C111.257 48.4167 112.122 49.2372 112.749 50.2885C113.377 51.3397 113.691 52.5256 113.691 53.8462C113.691 55.1667 113.377 56.3526 112.749 57.4038C112.122 58.4551 111.257 59.2821 110.155 59.8846C109.053 60.4744 107.816 60.7692 106.445 60.7692ZM106.445 58.5769C107.342 58.5769 108.149 58.3782 108.867 57.9808C109.584 57.5705 110.148 57.0064 110.558 56.2885C110.968 55.5577 111.173 54.7436 111.173 53.8462C111.173 52.9487 110.968 52.141 110.558 51.4231C110.148 50.6923 109.584 50.1282 108.867 49.7308C108.149 49.3205 107.342 49.1154 106.445 49.1154C105.548 49.1154 104.741 49.3205 104.023 49.7308C103.305 50.1282 102.742 50.6923 102.331 51.4231C101.921 52.141 101.716 52.9487 101.716 53.8462C101.716 54.7436 101.921 55.5577 102.331 56.2885C102.742 57.0064 103.305 57.5705 104.023 57.9808C104.741 58.3782 105.548 58.5769 106.445 58.5769Z" stroke="white"/>
<path d="M119.458 49.2308H114.999V47.1154H126.416V49.2308H121.957V60.5769H119.458V49.2308Z" stroke="white"/>
<path d="M138.96 58.4808V60.5769H128.868V47.1154H138.691V49.2115H131.367V52.7115H137.864V54.7692H131.367V58.4808H138.96Z" stroke="white"/>
<path d="M142.322 47.1154H144.821V58.4615H151.856V60.5769H142.322V47.1154Z" stroke="white"/>
<path d="M158.482 60.7692C157.444 60.7692 156.438 60.6218 155.465 60.3269C154.503 60.0321 153.741 59.641 153.177 59.1539L154.042 57.2115C154.593 57.6474 155.266 58.0064 156.06 58.2885C156.868 58.5577 157.675 58.6923 158.482 58.6923C159.482 58.6923 160.225 58.5321 160.712 58.2115C161.212 57.891 161.462 57.468 161.462 56.9423C161.462 56.5577 161.321 56.2436 161.039 56C160.77 55.7436 160.424 55.5449 160.001 55.4038C159.578 55.2628 159.001 55.1026 158.271 54.9231C157.246 54.6795 156.413 54.4359 155.772 54.1923C155.144 53.9487 154.6 53.5705 154.138 53.0577C153.69 52.532 153.465 51.8269 153.465 50.9423C153.465 50.1987 153.664 49.5256 154.061 48.9231C154.471 48.3077 155.08 47.8205 155.887 47.4615C156.707 47.1026 157.707 46.9231 158.886 46.9231C159.706 46.9231 160.513 47.0256 161.308 47.2308C162.102 47.4359 162.788 47.7308 163.365 48.1154L162.576 50.0577C161.987 49.7115 161.372 49.4487 160.731 49.2692C160.09 49.0897 159.469 49 158.867 49C157.88 49 157.143 49.1667 156.656 49.5C156.182 49.8333 155.945 50.2756 155.945 50.8269C155.945 51.2115 156.08 51.5256 156.349 51.7692C156.631 52.0128 156.983 52.2051 157.406 52.3461C157.829 52.4872 158.405 52.6474 159.136 52.8269C160.135 53.0577 160.955 53.3013 161.596 53.5577C162.237 53.8013 162.781 54.1795 163.23 54.6923C163.691 55.2051 163.922 55.8974 163.922 56.7692C163.922 57.5128 163.717 58.1859 163.307 58.7885C162.91 59.391 162.301 59.8718 161.481 60.2308C160.661 60.5898 159.661 60.7692 158.482 60.7692Z" stroke="white"/>
</svg>
