<svg width="1051" height="127" viewBox="0 0 1051 127" fill="none" xmlns="http://www.w3.org/2000/svg">
<path fill-rule="evenodd" clip-rule="evenodd" d="M558.475 7.89058C546.423 7.89058 536.184 9.61249 527.656 12.9305L527.635 12.9385L527.615 12.9464C519.083 16.165 512.745 20.7003 508.367 26.4616C504.12 32.093 501.946 38.714 501.946 46.4874C501.946 52.5205 503.647 57.0189 506.71 60.3542C510.297 64.0164 514.403 66.7316 519.047 68.5463C524.085 70.4032 530.522 72.2923 538.399 74.2035C544.476 75.6098 549.181 76.9691 552.301 78.3134C555.773 79.7615 559.057 82.3602 559.057 86.6031C559.057 90.7921 556.054 93.5063 552.5 95.0423C548.953 96.5757 544.304 97.1804 538.924 97.1804C525.476 97.1804 512.548 94.1357 500.183 88.1075L488.427 109.308C493.349 111.704 499.344 113.763 506.472 115.445C515.263 117.412 524.704 118.406 534.808 118.406C546.743 118.406 556.934 116.739 565.475 113.52C574.032 110.188 580.384 105.639 584.765 99.9698C589.123 94.3297 591.337 87.7696 591.337 80.1328C591.337 74.1979 589.632 69.8138 586.572 66.5878C583.122 62.9515 579.045 60.2966 574.301 58.5831L574.287 58.578L574.273 58.5728C569.257 56.7218 562.946 54.9393 555.295 53.2411C548.855 51.8309 543.905 50.4709 540.669 49.128L540.64 49.1159L540.611 49.1034C537.058 47.5674 534.055 44.8531 534.055 40.6641C534.055 36.384 537.367 33.5723 540.943 31.8237C544.881 29.8976 549.995 29.1163 555.903 29.1163C562.197 29.1163 568.328 29.8584 574.286 31.3482C578.824 32.4616 583.084 33.9952 587.056 35.9554L597.872 15.3126C593.44 13.2586 588.308 11.6066 582.442 10.3861L582.407 10.3787L582.372 10.3708C575.068 8.72578 567.108 7.89058 558.475 7.89058ZM524.485 5.62849C534.247 1.8343 545.611 0 558.475 0C567.665 0 576.272 0.887624 584.28 2.68815C592.38 4.37637 599.49 6.8788 605.54 10.2555L608.878 12.1188L590.52 47.1547L586.591 44.8047C582.293 42.2339 577.495 40.2882 572.172 38.9827L572.162 38.9803L572.152 38.9778C566.908 37.6657 561.495 37.0068 555.903 37.0068C550.605 37.0068 547.03 37.7352 544.794 38.8286C543.556 39.4338 542.925 39.9544 542.633 40.2913C542.393 40.5673 542.421 40.6618 542.421 40.6641C542.421 40.782 542.433 40.8317 542.533 40.9494C542.686 41.1299 543.1 41.4959 544.069 41.9182C546.554 42.9449 550.854 44.1684 557.192 45.5559L557.198 45.5572L557.204 45.5586C565.094 47.3095 571.81 49.1915 577.31 51.2204C583.307 53.3893 588.485 56.7713 592.806 61.3264C597.521 66.2962 599.703 72.6959 599.703 80.1328C599.703 89.3188 597 97.5325 591.526 104.617C586.077 111.669 578.372 117.038 568.646 120.822L568.625 120.83L568.604 120.838C558.855 124.516 547.558 126.297 534.808 126.297C524.112 126.297 514.009 125.243 504.514 123.117L504.49 123.111L504.466 123.105C495.039 120.883 487.063 117.949 480.65 114.227L477.328 112.298L496.76 77.2533L500.535 79.3011C512.859 85.9877 525.637 89.2898 538.924 89.2898C543.833 89.2898 547.074 88.7083 549.015 87.8693C550.003 87.4419 550.424 87.0706 550.578 86.8884C550.673 86.7764 550.689 86.726 550.69 86.6197C550.679 86.6042 550.661 86.5812 550.633 86.5506C550.461 86.3617 549.987 85.9738 548.901 85.5233L548.872 85.5112L548.843 85.4987C546.478 84.4762 542.398 83.253 536.384 81.8617L536.361 81.8564L536.339 81.851C528.239 79.8865 521.432 77.8998 515.961 75.8808L515.925 75.8673L515.889 75.8532C510.045 73.5767 504.915 70.163 500.517 65.6594L500.478 65.6198L500.441 65.5792C495.753 60.5071 493.58 54.0178 493.58 46.4874C493.58 37.2264 496.206 28.9686 501.558 21.8769L501.562 21.8718L501.566 21.8667C507.017 14.6935 514.734 9.31098 524.485 5.62849ZM687.313 7.89058C673.396 7.89058 661.045 10.624 650.164 16.007C639.404 21.3869 631.002 28.9135 624.884 38.6301C618.903 48.2031 615.863 59.1958 615.863 71.7215C615.863 80.9942 618.15 89.0552 622.621 96.0258C627.209 103.001 633.68 108.495 642.165 112.501C650.756 116.397 660.853 118.406 672.564 118.406C686.486 118.406 698.777 115.671 709.536 110.292L709.544 110.289L709.552 110.285C720.435 104.898 728.825 97.4242 734.818 87.8348L734.821 87.8294L734.825 87.824C740.923 78.1369 744.014 67.0904 744.014 54.5752C744.014 45.3115 741.675 37.2571 737.095 30.2871L737.084 30.2699L737.073 30.2526C732.612 23.3048 726.164 17.8729 717.57 13.9703L717.542 13.9575L717.514 13.9443C709.051 9.95345 699.024 7.89058 687.313 7.89058ZM646.267 9.0249C658.48 2.98034 672.194 0 687.313 0C700.059 0 711.403 2.24649 721.228 6.87393C731.136 11.3788 738.852 17.7987 744.217 26.147C749.692 34.4861 752.38 44.0037 752.38 54.5752C752.38 68.3711 748.955 80.8321 742.02 91.8491C735.21 102.743 725.654 111.224 713.448 117.267C701.342 123.318 687.681 126.297 672.564 126.297C659.82 126.297 648.432 124.105 638.507 119.598L638.479 119.585L638.451 119.572C628.662 114.955 620.967 108.488 615.499 100.166L615.488 100.149L615.477 100.132C610.123 91.7935 607.497 82.2828 607.497 71.7215C607.497 57.9375 610.859 45.5314 617.681 34.6167L617.684 34.6114L617.688 34.606C624.603 23.6214 634.149 15.0823 646.252 9.03245L646.259 9.02866L646.267 9.0249ZM81.8211 2.58811H127.212L157.665 123.709H108.603L104.658 103.974H64.7574L52.7521 123.709H0L81.8211 2.58811ZM86.4105 10.4787L15.2502 115.818H47.907L59.9122 96.0836H111.594L115.539 115.818H147.083L120.598 10.4787H86.4105ZM168.347 2.58811H216.76L223.362 57.7962L253.876 2.58811H297.419L303.271 58.47L334.139 2.58811H383.355L316.578 123.709H266.894L261.118 73.4604L233.398 123.709H183.757L168.347 2.58811ZM177.777 10.4787L191.179 115.818H228.32L266.457 46.6895L274.402 115.818H311.498L369.575 10.4787H339.214L297.707 85.6199L289.839 10.4787H258.949L218.118 84.3526L209.285 10.4787H177.777ZM387.169 2.58811H493.298L485.432 39.2714H427.659L426.547 44.6449H477.337L469.832 80.0342H418.91L417.46 87.0252H477.691L469.825 123.709H361.485L387.169 2.58811ZM394.028 10.4787L371.69 115.818H462.981L467.464 94.9158H407.299L412.023 72.1436H462.974L467.132 52.5355H416.391L420.767 31.3808H478.588L483.07 10.4787H394.028ZM776.094 2.58811H815.262L839.677 58.9459L886.741 2.58811H928.332L903.015 123.709H857.628L865.851 83.8056L841.609 113.518H818.955L804.651 82.0394L795.815 123.709H750.411L776.094 2.58811ZM782.953 10.4787L760.615 115.818H788.957L801.731 55.5802L824.472 105.627H837.491L870.021 65.7567L877.442 68.9155L867.777 115.818H896.137L918.155 10.4787H890.801L837.364 74.468L809.643 10.4787H782.953ZM944.871 2.58811H1051L1043.13 39.2714H985.361L984.249 44.6449H1035.04L1027.53 80.0342H976.613L975.162 87.0252H1035.39L1027.53 123.709H919.188L944.871 2.58811ZM951.73 10.4787L929.393 115.818H1020.68L1025.17 94.9158H965.001L969.725 72.1436H1020.68L1024.83 52.5355H974.093L978.47 31.3808H1036.29L1040.77 10.4787H951.73ZM664.699 36.2853C670.268 32.6588 676.718 30.8956 683.883 30.8956C692.031 30.8956 698.93 33.1404 704.012 38.0553C709.156 42.918 711.562 49.3251 711.562 56.8398C711.562 63.6064 710.198 69.932 707.422 75.7638C704.614 81.6621 700.481 86.4414 695.026 89.9985C689.556 93.6422 683.15 95.4011 675.994 95.4011C667.831 95.4011 660.898 93.1493 655.714 88.2605L655.694 88.2414L655.674 88.2221C650.65 83.3516 648.315 76.9504 648.315 69.4569C648.315 62.6903 649.679 56.3647 652.455 50.5329C655.255 44.6518 659.319 39.8739 664.66 36.3108L664.68 36.2979L664.699 36.2853ZM669.473 42.7654C665.447 45.4557 662.315 49.0852 660.087 53.7648C657.833 58.5011 656.681 63.7142 656.681 69.4569C656.681 75.323 658.455 79.5922 661.65 82.7001C664.927 85.7794 669.536 87.5105 675.994 87.5105C681.636 87.5105 686.313 86.1463 690.214 83.5439L690.234 83.531L690.253 83.5183C694.393 80.8222 697.571 77.1946 699.79 72.5319C702.045 67.7955 703.196 62.5824 703.196 56.8398C703.196 50.9923 701.379 46.7307 698.076 43.6156L698.056 43.5965L698.036 43.5771C694.887 40.5254 690.359 38.7862 683.883 38.7862C678.253 38.7862 673.504 40.1458 669.473 42.7654ZM98.639 32.3815L107.519 76.4755H71.7376L98.639 32.3815ZM86.2038 68.5849H97.4144L94.6322 54.77L86.2038 68.5849Z" fill="white"/>
</svg>
