<svg height="483pt" viewBox="-54 0 483 483.59643" width="483pt" xmlns="http://www.w3.org/2000/svg"><path d="m137.335938 72.488281c-19.90625 0-36.023438 17.09375-36.039063 38.097657l-.074219 168.585937-8.601562-10.5c-8.527344-10.628906-21.09375-17.230469-34.683594-18.226563-13.3125-.910156-26.410156 3.722657-36.1875 12.800782l-8.359375 6.933594c-2.898437 2.40625-3.726563 6.511718-1.984375 9.851562l81.449219 156.679688c14.980469 28.796874 43.507812 46.886718 74.433593 46.886718h91.351563c46.871094 0 85.042969-40.800781 85.089844-90.691406.023437-22.097656.042969-38.6875.058593-52.066406.046876-35.917969.066407-49.507813-.027343-89.066406-.046875-20.96875-16.253907-38.175782-36.128907-38.175782h-.625c-8.382812.050782-16.460937 3.121094-22.769531 8.640625-5.375-13.957031-18.375-23.78125-33.554687-23.78125-9.191406.003907-18.011719 3.632813-24.546875 10.097657-6.136719-11.835938-18.054688-19.957032-31.714844-19.957032h-.660156c-7.335938.117188-14.46875 2.445313-20.460938 6.679688v-84.65625c0-21.023438-16.035156-38.132813-35.964843-38.132813zm56.425781 132.109375h.660156c11.101563 0 19.878906 10.140625 19.878906 22.34375v45.03125c0 4.417969 3.582031 8 8 8s8-3.582031 8-8v-35.332031c0-12.203125 9.367188-22.132813 20.53125-22.132813 11.101563 0 20.46875 9.925782 20.46875 22.132813v33.332031c0 4.417969 3.582031 8 8 8s8-3.582031 8-8v-18.050781c0-12.199219 8.609375-22.324219 19.707031-22.324219h.625c11.070313 0 20.101563 10 20.128907 22.164063.09375 39.527343.074219 53.007812.027343 88.910156-.015624 13.378906-.035156 30.089844-.058593 52.195313-.039063 41.082031-31.03125 74.730468-69.089844 74.730468h-91.351563c-24.9375 0-48.023437-14.789062-60.246093-38.269531l-78.46875-150.847656 3.542969-2.988281c.097656-.085938.203124-.199219.304687-.292969 6.566406-6.183594 15.40625-9.359375 24.40625-8.773438 9.199219.703125 17.691406 5.199219 23.449219 12.410157l22.789062 27.746093c2.144532 2.609375 5.699219 3.589844 8.878906 2.453125 3.179688-1.136718 5.304688-4.152344 5.304688-7.53125l.132812-190.898437c.007813-12.195313 8.863282-22.117188 19.960938-22.117188s19.957031 9.929688 19.957031 22.132813v115.089844c0 .402343-.019531.8125-.019531 1.21875 0 .183593.019531.367187.019531.546874v49.191407c0 4.417969 3.582031 8 8 8s8-3.582031 8-8v-50.683594c1-11.761719 9.652344-21.386719 20.460938-21.386719zm0 0"/><path d="m4.738281 58.753906 38.5 38.5c3.125 3.121094 8.191407 3.121094 11.316407 0 3.125-3.125 3.125-8.191406 0-11.316406l-26.34375-26.339844h243.605468c3.773438 27.109375 27.785156 46.742188 55.101563 45.054688 27.320312-1.683594 48.734375-24.121094 49.144531-51.488282.414062-27.367187-20.316406-50.4375-47.570312-52.945312-27.253907-2.507812-51.84375 16.394531-56.433594 43.378906h-242.285156l24.777343-24.78125c2.042969-2.015625 2.847657-4.972656 2.109375-7.746094-.734375-2.773437-2.902344-4.9375-5.675781-5.675781s-5.730469.066407-7.746094 2.109375l-36.199219 36.199219c-3.433593.542969-6.125 3.246094-6.648437 6.683594-.527344 3.4375 1.234375 6.820312 4.347656 8.363281zm318.949219-42.757812c20.089844 0 36.375 16.285156 36.378906 36.378906 0 20.089844-16.289062 36.378906-36.378906 36.378906s-36.378906-16.289062-36.378906-36.378906c.023437-20.082031 16.296875-36.355469 36.378906-36.378906zm0 0"/></svg>